<?xml version="1.0" encoding="utf-8"?>
<!-- Generator: Adobe Illustrator 16.0.2, SVG Export Plug-In . SVG Version: 6.00 Build 0)  -->
<!DOCTYPE svg PUBLIC "-//W3C//DTD SVG 1.1//EN" "http://www.w3.org/Graphics/SVG/1.1/DTD/svg11.dtd">
<svg version="1.1" id="Layer_1" xmlns="http://www.w3.org/2000/svg" xmlns:xlink="http://www.w3.org/1999/xlink" x="0px" y="0px"
	 width="138px" height="44px" viewBox="0 0 138 44" enable-background="new 0 0 138 44" xml:space="preserve">
<g>
	<path id="Path_1" fill="#34AEFF" d="M21.373,0L8.96,22.782l15.6-5.355L21.373,0z"/>
	<path id="Path_2" fill="#34AEFF" d="M41.989,13.212L8.96,23.689l9.491,5.922L41.989,13.212z"/>
	<path id="Path_3" fill="#34AEFF" d="M0,43.734L29.764,36.9l13.212-23.233L0,43.734z"/>
</g>
<g>
	<path id="Path_4" fill="#223A7B" d="M60.021,20.248l-3.2,0.589c0.125-0.524,0.195-1.061,0.21-1.6c0-2.755-1.674-4.133-5.022-4.133
		c-2.651,0-3.977,0.949-3.977,2.846c0,1.424,1.476,2.646,4.429,3.666c5.698,1.957,8.546,4.85,8.544,8.678
		c0.072,2.08-0.812,4.079-2.4,5.424c-1.802,1.44-4.071,2.167-6.374,2.043c-5.867,0-8.8-2.274-8.8-6.825
		c0.005-0.459,0.034-0.918,0.087-1.375l3.319-0.723c-0.228,0.854-0.349,1.734-0.362,2.618c0,2.938,1.687,4.409,5.062,4.411
		c2.697,0,4.046-1.061,4.046-3.178c0-1.578-1.615-2.961-4.845-4.151c-4.671-1.72-7.001-4.46-6.989-8.222
		c-0.065-1.987,0.798-3.891,2.336-5.152c1.75-1.365,3.931-2.058,6.147-1.952C57.425,13.212,60.021,15.557,60.021,20.248z"/>
	<path id="Path_5" fill="#223A7B" d="M82.799,13.613v23.7h-5.254l-9.9-15.003v15.007h-2.31V13.613h4.36l10.801,16.2v-16.2H82.799z"
		/>
	<path id="Path_6" fill="#223A7B" d="M98.962,13.613l6.617,23.7h-6.931l-1.407-5.133h-7.138l-1.521,5.139h-2.692l7.031-23.699
		L98.962,13.613z M90.779,29.797h5.818L93.803,19.29L90.779,29.797z"/>
	<path id="Path_7" fill="#223A7B" d="M115.734,13.613v23.7h-6.869v-23.7H115.734z"/>
	<path id="Path_8" fill="#223A7B" d="M128.154,13.613v21.333h9.744v2.381h-16.633V13.613H128.154z"/>
</g>
<rect x="-41.833" y="-4.833" fill="#34AEFF" width="15.333" height="15.334"/>
<rect x="-41.833" y="26.833" fill="#223A7B" width="15.333" height="15.333"/>
</svg>
